<?xml version="1.0" encoding="UTF-8"?>
<svg width="194px" height="112px" viewBox="0 0 194 112" version="1.1" xmlns="http://www.w3.org/2000/svg" xmlns:xlink="http://www.w3.org/1999/xlink">
    <title>Group 12</title>
    <g id="Page-1" stroke="none" stroke-width="1" fill="none" fill-rule="evenodd">
        <g id="Handla-Website" transform="translate(-943.000000, -752.000000)">
            <g id="Group-12" transform="translate(943.000000, 752.000000)">
                <path d="M56,0 L138,0 C168.927946,-5.68137151e-15 194,25.072054 194,56 C194,86.927946 168.927946,112 138,112 L56,112 C25.072054,112 -1.04232737e-14,86.927946 0,56 C-1.79984357e-14,25.072054 25.072054,5.68137151e-15 56,0 Z" id="Button" fill="#000000"></path>
                <path d="M138,26.5 C154.2924,26.5 167.5,39.7075999 167.5,56 C167.5,72.2924001 154.2924,85.5 138,85.5 C121.7076,85.5 108.5,72.2924001 108.5,56 C108.5,39.7075999 121.7076,26.5 138,26.5 Z M68.8552109,35.6000688 L69.4058698,35.6078328 L69.4058698,35.6078328 L69.8237418,35.6254491 L69.8237418,35.6254491 L70.1352962,35.6454594 L70.1352962,35.6454594 L70.4712827,35.6736881 L70.4712827,35.6736881 L70.8300331,35.7115112 L70.8300331,35.7115112 L71.209879,35.760305 L71.209879,35.760305 L71.6091523,35.8214455 L71.6091523,35.8214455 L72.0261845,35.8963089 C74.7201039,36.4168049 78.3821506,37.8457585 81.1052109,41.7563188 L80.6449215,42.0628453 L80.6449215,42.0628453 L80.3376614,42.2778723 L80.3376614,42.2778723 L79.972696,42.5489008 C79.9293132,42.5821599 79.8850492,42.6164729 79.8399665,42.6518453 L79.5601445,42.8768389 C79.5120366,42.9164717 79.4632348,42.9571753 79.4138016,42.9989551 L79.1101261,43.2625947 C77.1451931,45.0146794 74.4489609,48.3371378 74.4489609,53.5375688 C74.4489609,58.8093491 77.1009352,62.1335858 79.3988107,64.0172555 L79.7582522,64.3027795 C79.8175226,64.3483962 79.8764382,64.3930338 79.9349442,64.4367014 L80.2806273,64.6871425 L80.2806273,64.6871425 L80.613851,64.9147494 C80.668204,64.9508057 80.7219282,64.985929 80.7749689,65.0201286 L81.0845732,65.2143156 L81.0845732,65.2143156 L81.3751442,65.3867772 L81.3751442,65.3867772 L81.769561,65.6057042 L81.769561,65.6057042 L82.1063614,65.7782435 L82.1063614,65.7782435 L82.2945031,65.8682378 L82.2945031,65.8682378 L82.5716131,65.9901456 L82.5716131,65.9901456 L82.6989609,66.0375688 L82.6989609,66.0375688 L82.6835589,66.1058446 L82.6835589,66.1058446 L82.6470441,66.2385253 L82.4891823,66.7432917 L82.4891823,66.7432917 L82.331229,67.2038592 L82.331229,67.2038592 L82.1272958,67.7605469 L82.1272958,67.7605469 L81.9652077,68.1802103 L81.9652077,68.1802103 L81.781802,68.635301 L81.781802,68.635301 L81.5767256,69.1229016 L81.5767256,69.1229016 L81.3496257,69.6400952 L81.3496257,69.6400952 L81.1001494,70.1839644 L81.1001494,70.1839644 L80.8279439,70.7515922 C80.7806626,70.8480146 80.7324195,70.9453054 80.6832074,71.0434039 L80.3762463,71.6411997 L80.3762463,71.6411997 L80.0456737,72.255461 C79.5890124,73.0841568 79.0684462,73.9489815 78.4802109,74.8188188 L77.7346555,75.8725295 L77.3475355,76.4083733 L77.3475355,76.4083733 L76.9562408,76.937554 L76.9562408,76.937554 L76.5599351,77.4575224 C76.4934201,77.5432745 76.4266615,77.6285365 76.3596418,77.7132553 L75.9542518,78.214625 C73.9783785,80.6022997 71.753658,82.4438188 68.8552109,82.4438188 C67.1677109,82.4438188 65.9802109,82.0488188 64.8547109,81.5748188 L63.7336554,81.0861892 C62.4120165,80.5127077 60.9760443,79.9750688 58.7302109,79.9750688 C56.5135443,79.9750688 54.963822,80.5263188 53.5538406,81.1143188 L52.3672109,81.6153188 C51.1902109,82.1013188 50.0052109,82.5063188 48.4802109,82.5063188 C45.6866063,82.5063188 43.5101934,80.6709855 41.3655088,78.0307345 L40.9506475,77.5099439 L40.9506475,77.5099439 L40.5356353,76.9707115 L40.5356353,76.9707115 L40.1195288,76.4146976 L40.1195288,76.4146976 L39.7013848,75.8435623 L39.7013848,75.8435623 L39.0682849,74.9621388 C38.99745,74.8627277 38.9264319,74.7628595 38.8552109,74.6625688 C35.2614609,69.5688188 32.3864609,61.6625688 32.3864609,54.1625688 C32.3864609,42.1625688 40.1989609,35.7875688 47.9177109,35.7875688 C49.8677109,35.7875688 51.6593109,36.3995688 53.2821429,37.0360488 L54.8483349,37.6589288 C55.9802109,38.0995688 57.0152109,38.4438188 57.9489609,38.4438188 C58.7054264,38.4438188 59.5943236,38.1699261 60.599773,37.7921431 L61.2871654,37.5267622 L61.2871654,37.5267622 L62.3807181,37.0954599 C64.2641363,36.3608818 66.4468058,35.6000688 68.8552109,35.6000688 Z M138,32 C124.745166,32 114,42.745166 114,56 C114,69.254834 124.745166,80 138,80 C151.254834,80 162,69.254834 162,56 C162,42.745166 151.254834,32 138,32 Z M137.745455,40.65625 C139.325316,40.65625 140.383572,41.7139489 140.459794,43.3270605 L140.464205,43.515625 L140.464205,59.140625 L140.32358,62.515625 L142.63608,59.75 L146.13608,56.25 C146.63608,55.734375 147.245455,55.359375 148.089205,55.359375 C149.54233,55.359375 150.651705,56.421875 150.651705,57.984375 C150.651705,58.6235795 150.419267,59.2498709 149.95439,59.7693346 L149.807955,59.921875 L139.745455,70 C139.26108,70.484375 138.47983,70.796875 137.745455,70.796875 C137.077841,70.796875 136.371488,70.5386105 135.884659,70.1277353 L135.745455,70 L125.682955,59.921875 C125.13608,59.375 124.839205,58.6875 124.839205,57.984375 C124.839205,56.421875 125.94858,55.359375 127.41733,55.359375 C128.176444,55.359375 128.764877,55.6744792 129.242805,56.1241591 L129.370455,56.25 L132.839205,59.75 L135.16733,62.515625 L135.01108,59.140625 L135.01108,43.515625 C135.01108,41.796875 136.10483,40.65625 137.745455,40.65625 Z M69.8239609,20.6625688 C69.8864609,21.0063188 69.9177109,21.4438188 69.9177109,21.8813188 C69.9177109,25.0688188 68.5739609,28.2250688 66.6677109,30.5375688 C64.5739609,33.0688188 61.0739609,34.9438188 58.2927109,34.9438188 C58.0635443,34.9438188 57.8482665,34.9160411 57.6746554,34.8882633 L57.4489609,34.8500688 L57.4489609,34.8500688 L57.4026646,34.6000688 C57.3656276,34.3778466 57.3239609,34.0584022 57.3239609,33.7250688 C57.3239609,30.6514081 58.8349622,27.5777474 60.5400275,25.5688445 L60.7302109,25.3500688 C62.9489609,22.7250688 66.6989609,20.7875688 69.8239609,20.6625688 Z" id="Shape" fill="#FFFFFF" fill-rule="nonzero"></path>
            </g>
        </g>
    </g>
</svg>