<?xml version="1.0" encoding="UTF-8"?>
<svg width="381px" height="97px" viewBox="0 0 381 97" version="1.1" xmlns="http://www.w3.org/2000/svg" xmlns:xlink="http://www.w3.org/1999/xlink">
    <title>plantry</title>
    <defs>
        <polygon id="path-1" points="0 0 60.4907125 0 60.4907125 67.5374342 0 67.5374342"></polygon>
        <polygon id="path-3" points="0 0 49.4976907 0 49.4976907 65.293365 0 65.293365"></polygon>
    </defs>
    <g id="Plantry-website" stroke="none" stroke-width="1" fill="none" fill-rule="evenodd">
        <g id="Plantry-4.0-website-+-ipad" transform="translate(-530.000000, -79.000000)">
            <g id="Brand/Plantry-Logo-Solid-2" style="mix-blend-mode: multiply;" transform="translate(444.000000, 16.000000)">
                <g id="Brand/Plantry-Logo-Solid" transform="translate(89.576471, 63.529412)">
                    <g id="Brand/_/Lita-Logo-Outlined-Inverted-16-pt" transform="translate(0.354436, 0.835969)" fill="#000000" fill-rule="nonzero">
                        <path d="M54.4409729,0.572249663 C67.5455861,0.572249663 79.9040914,2.72128763 89.3448985,6.66325693 C94.4901958,8.81165418 98.7808825,11.4893639 101.997988,14.7324216 C105.990925,18.7575704 108.309696,23.6522405 108.309696,29.0588372 C108.309696,40.6894994 101.345707,55.1699901 93.1738002,63.5715327 L92.8538807,63.8976687 L92.5429166,64.2094498 C77.1290222,79.538345 53.962635,84.1215491 33.8338725,75.8316389 C26.9123028,72.981032 20.7991234,68.7899221 15.7618587,63.6228783 C7.80231527,55.4582665 0.572249663,40.6812286 0.572249663,29.0588372 C0.572249663,23.6520938 2.89090706,18.7572573 6.88378387,14.7320186 C10.1009192,11.4888087 14.3916557,8.81107863 19.5370592,6.66272748 C28.977616,2.72102864 41.3359967,0.572249663 54.4409729,0.572249663 Z M15.3790147,46.7681502 L15.5412675,47.0691341 C20.2680692,55.7993691 27.9303446,62.8793306 37.5385095,66.8363957 C54.0470589,73.6353427 73.0488839,69.8760495 85.6830544,57.3115496 C88.8473979,54.1646557 91.4562139,50.6206383 93.4818596,46.8179274 C84.9530684,53.2740028 70.6017682,57.32397 54.4642687,57.32397 C49.1244838,57.32397 43.9804243,56.8807033 39.178223,56.0536593 L38.3088951,55.899072 C28.9326901,54.1788493 20.9171552,50.9836719 15.3790147,46.7681502 Z M54.4409729,10.3004939 C30.6976567,10.3004939 11.0987243,17.96989 10.3242643,28.4158603 L10.3056442,28.7721408 L10.3056442,28.8089074 C10.6992463,39.4175418 30.4588162,47.2449308 54.4409729,47.2449308 C78.448573,47.2449308 98.2279551,39.3980088 98.5767666,28.7723752 C98.2274183,18.14615 78.4533552,10.3004939 54.4409729,10.3004939 Z" id="Shape"></path>
                    </g>
                    <g id="Group-17" transform="translate(123.882353, 6.352941)">
                        <g id="Group-3">
                            <mask id="mask-2" fill="white">
                                <use xlink:href="#path-1"></use>
                            </mask>
                            <g id="Clip-2"></g>
                            <path d="M60.4837544,16.8658391 C60.3058339,27.6768487 48.0557115,40.7867781 24.7996332,44.4473428 C23.3047607,50.6613642 22.1644522,57.5568466 21.4638372,65.1333642 C21.489376,67.3467289 19.8084958,68.1128936 16.0006572,67.0913407 C12.6091014,66.1549172 10.8005271,63.0902584 10.9022567,58.8337878 C11.0222892,54.4070584 12.3928727,47.7673899 13.6183106,43.3406605 C13.6183106,43.3406605 21.9937678,10.9919096 32.8839478,10.0554861 C34.2617673,9.88522729 36.779044,10.0554861 37.7959148,10.9067802 C38.1947461,11.1621685 38.1096167,11.1621685 37.7929353,11.7580744 C36.0750238,14.3970861 30.2074791,22.2600642 26.5554273,36.9870268 C42.1562433,33.3268878 47.4061741,25.8044273 47.8245852,17.6320038 C48.1204099,10.651392 43.2616487,5.03285082 33.1372078,5.96927435 C18.379173,7.33134494 6.42359836,20.9520508 13.8115544,33.2953899 C13.9549974,33.5507781 14.0137367,33.8061664 13.740897,33.9764252 C12.2387885,35.3384958 9.59041248,36.2749193 6.84286072,36.5303075 C-8.09564846,37.8923781 1.48055907,3.27024635 35.0241012,0.205587529 C52.6948388,-1.41187129 60.7621275,6.73543906 60.4837544,16.8658391" id="Fill-1" fill="#000000" mask="url(#mask-2)"></path>
                        </g>
                        <path d="M55.0540302,62.1538348 C51.9106267,57.9824936 54.6326396,49.7253664 56.0594086,44.9581193 C58.6630916,36.1897899 61.6741189,27.5917193 64.2760994,18.8238155 C65.0754646,16.0145449 65.8067262,13.0350155 66.3681547,10.0554861 C66.4669048,8.26776847 68.4482919,8.01238024 70.9974921,8.01238024 C75.2467267,8.01238024 77.4341269,9.88522729 76.6160333,13.7160508 C76.2452947,15.6740273 75.7128102,17.5468744 75.1041349,19.334592 C72.5566373,27.5917193 70.0163756,35.7641428 67.2122128,44.0216958 C65.7279815,48.5331289 63.8721603,55.0033899 64.7702756,56.194776 C65.8978147,57.641976 71.3737641,52.3639525 76.23891,39.7652252 C76.9586792,37.7221193 81.2104676,37.7221193 79.4482888,41.6380722 C74.5971893,52.4495075 63.0902467,72.5396231 55.0540302,62.1538348" id="Fill-4" fill="#000000"></path>
                        <path d="M93.6898861,32.1037058 C87.8644804,32.5293529 79.8950905,56.3651625 83.3151646,56.1949037 C85.7911536,56.1097743 92.0430576,49.0440331 94.3777317,43.6813058 C94.6258839,42.9147155 94.8829748,42.0634213 95.1396399,41.2121272 C96.5885425,36.1899176 96.173111,31.933447 93.6898861,32.1037058 M105.143623,44.0218235 C103.662797,48.5332566 101.812083,55.0030919 102.711475,56.1949037 C103.840291,57.6421037 110.162427,52.3640802 115.017358,39.7653529 C115.367665,38.8289293 116.43987,38.3181529 117.366929,38.4032823 C118.114791,38.5735411 118.734533,39.169447 118.621737,40.2761293 C118.578747,40.7017764 118.450627,41.1274235 118.228439,41.6377743 C113.386278,52.4492096 101.044642,72.5397508 92.9999122,62.1539625 C91.6599752,60.2811155 91.4194846,57.6421037 91.7063708,54.8328331 C88.4029239,59.6852096 84.5469872,64.111939 81.1435134,64.111939 C78.6760374,64.111939 75.9399781,62.5796096 73.7785423,59.6000802 C72.735707,58.1528802 72.4113639,55.5138684 72.7344301,52.3640802 C73.741511,41.7233293 81.6777004,24.8677058 91.8791835,24.8677058 C94.9400115,24.8677058 97.1721046,26.3149058 98.6639976,28.3580117 C98.8010559,27.8472352 98.8534105,27.3364588 98.9994075,26.7405529 C99.0968806,24.9528352 101.121684,24.2717999 103.671735,24.2717999 C107.922672,24.2717999 110.119011,26.9108117 109.227281,30.6565058 C108.46367,33.9765529 107.471061,37.0412117 106.487391,40.0207411 C106.238813,40.7864802 105.751447,42.2336802 105.143623,44.0218235" id="Fill-6" fill="#000000"></path>
                        <path d="M156.498026,41.6379871 C151.579248,52.4494224 140.104655,72.5395379 132.136967,62.1537497 C128.901624,57.9824085 131.695571,49.7252812 133.114679,44.9580342 C133.798694,42.4041518 136.369176,34.657801 135.308038,33.3808598 C134.111544,31.7629753 125.355558,40.9569518 121.047159,54.0668812 C119.866414,58.153093 118.924883,61.5578438 118.734618,63.4306909 C118.537118,64.5373732 118.331956,64.8778909 115.86448,64.8778909 C107.526054,64.8778909 110.370654,54.4925283 112.707882,46.575493 C113.845636,42.9149283 115.814254,36.1045753 117.276777,31.7629753 C118.037834,29.2942224 118.183406,28.6987422 118.604796,26.2299892 C118.786547,24.4422716 120.682805,24.1868833 123.224344,24.2720128 C128.325298,24.2720128 129.758877,26.0597304 128.859911,29.8901283 C128.586645,30.9121069 128.32998,31.7629753 127.980098,32.6993989 C133.679938,25.1233069 140.332802,21.5478716 144.915743,27.5069304 C148.005515,31.4224577 145.691698,39.1692342 144.180225,44.0216106 C143.659233,45.8093283 140.705243,54.8330459 141.758294,56.1951165 C142.887961,57.6423165 148.355397,52.364293 153.285242,39.76514 C153.916902,37.7220342 158.16869,37.7220342 156.498026,41.6379871" id="Fill-8" fill="#000000"></path>
                        <path d="M151.654673,44.957949 C153.464524,38.829057 155.59659,32.8699982 157.405165,26.7406806 C153.638614,26.9960688 151.996893,28.1027512 151.996893,28.1027512 C148.861577,26.3150335 149.046308,21.1221394 158.057256,21.1221394 L158.907273,21.1221394 C159.206503,19.8451982 159.513394,18.4831276 159.727495,17.2061864 C159.831353,15.3333394 161.803376,15.1630806 164.353001,15.1630806 C168.603087,15.1630806 170.794318,17.0359276 169.992825,20.7816217 C169.941322,21.2923982 169.813628,21.7180453 169.676995,22.2288217 C170.934782,22.3990806 172.014223,22.6544688 172.932344,22.8247276 C174.011785,23.0801159 174.66643,23.3355041 174.42679,25.7191276 C174.195664,28.0176217 173.999441,28.27301 172.155112,28.0176217 C171.05822,27.9324923 169.714877,27.7622335 168.201702,27.5919747 C165.942793,34.8279747 165.465643,36.1896196 162.805774,44.0215255 C162.328198,45.3835961 158.473539,56.6206784 160.941015,56.6206784 C164.258933,56.6206784 171.118661,51.0710921 175.40365,39.7488803 C176.119163,37.7062001 179.8274,37.1264688 178.158438,41.0419961 C174.648978,50.5764902 165.54609,64.9633608 156.100982,64.9633608 C154.144282,64.9633608 152.36678,64.0265116 150.684197,62.1536646 C147.344996,58.1530079 150.238119,49.7251961 151.654673,44.957949" id="Fill-10" fill="#000000"></path>
                        <g id="Group-14" transform="translate(198.638144, 23.250162)">
                            <mask id="mask-4" fill="white">
                                <use xlink:href="#path-3"></use>
                            </mask>
                            <g id="Clip-13"></g>
                            <path d="M15.5776232,45.9694567 C10.2855533,48.6935979 5.63961568,51.7582567 5.20588133,56.0994311 C5.1296905,56.8660214 5.82775168,58.3979252 6.84930462,58.3979252 C8.72172603,58.3979252 12.0830609,55.4188214 14.3108976,49.2895038 L15.5776232,45.9694567 Z M49.3054705,17.2812706 C43.6103129,30.1353861 37.701906,34.8175038 28.5585816,39.4996214 C27.7179286,41.9683744 26.7917206,44.4371273 25.8574253,46.9910096 C19.7468362,63.0800428 13.0565157,65.2934075 8.63021192,65.2934075 C5.22503544,65.2934075 -0.40244432,61.1220664 0.0227770919,56.8660214 C0.822142268,48.8638567 10.6588458,44.0966096 17.362787,40.861692 L19.6825634,33.7959508 C14.0274166,41.0319508 7.6550545,44.3519979 3.12787239,38.5631979 C0.124506739,34.5621155 2.42172392,26.9008941 3.8416825,22.0485176 C4.99050392,18.2176941 6.54624392,12.8545412 7.86404721,9.02371765 C8.62084768,6.55496471 8.78259356,5.7888 9.19887639,3.32004706 C9.29209309,1.53275506 11.2734802,1.27694118 13.8239573,1.27694118 C21.1263583,1.36249624 19.6821378,6.46983529 18.5013929,10.6411765 C17.3632126,14.3868706 15.8760018,18.2176941 14.7284573,22.0485176 C13.360002,26.389692 11.9919724,31.5825861 12.7406856,32.6041391 C14.0252884,34.2215979 22.6820983,25.0280471 26.9628307,11.9181176 C28.0665336,8.51294118 28.9999776,5.10776471 29.568642,1.95840212 C29.6610074,0.170258824 31.6330303,0 34.1835074,0 C40.474571,0 39.7305399,5.7888 38.5510719,9.96014118 C37.303926,13.9612235 35.7673402,18.3028235 34.5453074,22.0485176 C34.5453074,22.0485176 32.9410437,27.0711529 30.5548663,33.9662096 C37.1702729,29.8799979 42.1682206,24.9429176 45.2145766,16.5151059 C46.2067599,13.3653176 50.4423738,14.3868706 49.3054705,17.2812706 L49.3054705,17.2812706 Z" id="Fill-12" fill="#000000" mask="url(#mask-4)"></path>
                        </g>
                        <path d="M203.223133,41.9875285 L208.231297,35.3155108 C208.231297,35.3155108 207.854599,33.0506428 207.145045,30.1370887 C206.780266,31.6204687 206.088589,33.0595814 205.293481,34.3667435 C204.733329,35.4389485 199.465521,41.0660026 199.233969,37.7600019 C199.553205,34.7149228 203.17461,30.3907744 202.555293,27.6040631 C201.952151,24.8897118 199.402951,23.8430456 196.660081,23.9941504 C193.672465,24.3121087 189.312562,28.0292845 187.684888,30.3788562 C187.51846,30.6193468 187.412473,30.4899501 187.478874,30.2775522 C189.664998,23.2862993 184.372077,22.8027642 180.419518,23.3361 C179.431591,23.4182499 178.724591,24.0924748 178.482824,25.03656 C177.412321,29.1129819 176.916868,33.1178951 175.781242,37.3781965 C174.669452,41.5461325 173.210759,44.1161894 170.154188,48.423312 C168.036594,51.4075235 165.262226,54.8982551 161.688919,56.2075454 C160.007613,56.6050998 160.057414,55.9095925 160.016977,55.3383741 C159.231233,57.9654678 158.095181,62.1951226 157.309011,64.9222433 C163.631998,63.9824146 167.53731,59.2177214 171.307266,54.6986266 C171.32344,54.8148282 171.348553,54.9306042 171.350682,55.0489341 C171.40559,57.8147887 171.147222,60.9313765 173.109881,63.0225805 C174.621354,64.6332289 177.618335,65.1546466 179.045104,64.6957991 C179.865325,64.4323235 179.991317,63.7861913 180.055164,62.7016426 C180.505499,55.0323339 182.723971,46.3593494 186.621196,39.6413619 C187.383955,38.4295447 190.251539,33.9351374 191.74854,34.580844 C192.235055,34.8996536 191.988605,35.3755271 191.812813,35.8135179 C190.728264,38.7938986 189.219771,41.8743064 189.401097,45.1390193 C189.409609,48.5688833 193.267249,49.5538306 196.700944,47.7831388 C199.550225,46.3138052 203.122681,42.1382075 203.223133,41.9875285" id="Fill-15" fill="#000000"></path>
                    </g>
                </g>
            </g>
        </g>
    </g>
</svg>