<svg width="112" height="112" viewBox="0 0 112 112" fill="none" xmlns="http://www.w3.org/2000/svg">
<path fill-rule="evenodd" clip-rule="evenodd" d="M31.2666 0.5H80.7334C91.4316 0.5 95.311 1.61391 99.2221 3.70559C103.133 5.79728 106.203 8.86674 108.294 12.7779C110.386 16.689 111.5 20.5684 111.5 31.2666V80.7334C111.5 91.4316 110.386 95.311 108.294 99.2221C106.203 103.133 103.133 106.203 99.2221 108.294C95.311 110.386 91.4316 111.5 80.7334 111.5H31.2666C20.5684 111.5 16.689 110.386 12.7779 108.294C8.86674 106.203 5.79728 103.133 3.70559 99.2221C1.61391 95.311 0.5 91.4316 0.5 80.7334V31.2666C0.5 20.5684 1.61391 16.689 3.70559 12.7779C5.79728 8.86674 8.86674 5.79728 12.7779 3.70559C16.689 1.61391 20.5684 0.5 31.2666 0.5Z" fill="white" style="fill:white;fill-opacity:1;"/>
<path fill-rule="evenodd" clip-rule="evenodd" d="M74.5 82.5V86.5H72.5V88.5H68.5V86.5H70.5V82.5H74.5ZM86.5 86.5V88.5H84.5V86.5H86.5ZM80.5 86.5V88.5H78.5V86.5H80.5ZM52.5 74.5V76.5H54.5V78.5H52.5V80.5H54.5V82.5H50.5V86.5H52.5V88.5H46.5V86.5H48.5001L48.5 84.5H46.5V86.5H44.5V84.5H46.5V82.5H44.5V80.5H40.5V82.5H38.5V80.5H40.5V78.5H46.5V80.5H48.5V78.5H50.5V74.5H52.5ZM64.5 80.5V84.5H68.5V86.5H66.5L66.5001 88.5H64.5V86.5H60.5V84.5H62.5V80.5H64.5ZM36.5 74.5V88.5H22.5V74.5H36.5ZM44.5 86.5L44.5001 88.5H38.5V86.5H44.5ZM58.5 84.5V86.5H52.5V84.5H58.5ZM34.4 76.6H24.6001V86.3999H34.4V76.6ZM60.5 82.5V84.5H58.5L58.5 82.5H60.5ZM32.5 78.5V84.5H26.5V78.5H32.5ZM42.5 82.5V84.5H40.5V82.5L42.5 82.5ZM74.5 60.5V64.5H76.5V68.5H78.5V70.5H80.5L80.5 72.5H82.5V74.5H86.5V78.5H84.5V76.5H80.5V78.5H82.5V80.5H84.5V82.5H82.5V84.5H78.5V80.5H76.5V82.5L74.5 82.5V80.5H70.5V70.5H74.5V68.5H72.5V60.5H74.5ZM88.5 82.5V84.5H86.5V82.5H88.5ZM68.5 80.5V82.5H66.5V80.5H68.5ZM56.5 78.5V80.5H54.5V78.5H56.5ZM70.5 50.5L70.5 52.5H72.5V54.5H68.5V52.5H66.5V54.5H68.5V56.5L74.5 56.5V58.5H72.5V60.5L70.5 60.5L70.5 64.5H68.5V66.5H64.5V64.5H60.5V66.5H62.5V68.5H66.5V72.5L68.5 72.5V74.5H66.5V76.5H68.5V78.5H66.5V80.5H64.5V78.5H62.5V80.5H60.5V76.5H62.5V74.5H58.5V72.5L56.5 72.499V76.5H54.5L54.5 72.5L52.5 72.5V70.5H54.5V68.5H52.5V66.5H50.5V64.5H52.5V62.5H56.5V60.5L58.5 60.5V58.5H60.5V60.5H62.5V58.5H64.5V56.5L60.5 56.5V54.5H64.5V52.5H66.5V50.5H70.5ZM40.5 76.5V78.5H38.5V76.5H40.5ZM78.5 72.5H72.5V78.5H78.5V72.5ZM76.5 74.5V76.5H74.5V74.5H76.5ZM24.5 38.5L24.5 40.5L28.5 40.5V38.5H30.5V42.5H32.5V38.5H36.5V40.5L34.5 40.5V42.5H36.5V40.5L38.5 40.5V42.5H40.5V40.5H44.5V42.5H42.5V44.5H44.5V48.5H42.5L42.5 50.5L40.5 50.5V52.5H44.5L44.5 56.5L46.5 56.5V54.5H50.5V52.5H54.5V54.5H52.5V56.5H48.5L48.5 58.5H44.5L44.5 60.5L48.5 60.5V62.5H46.5V64.5H48.5L48.5 66.5H50.5V70.5H48.5V72.5L46.5 72.5V74.5H44.5V76.5H42.5V72.5L40.5 72.5V74.5H38.5V72.5L40.5 72.5V70.5H44.5V64.5H42.5V66.5H40.5V64.5H42.5V58.5H40.5V56.5H38.5V58.5H36.5V56.5L34.5 56.5V54.5H36.5V52.5H38.5L38.5 50.5H36.5V52.5H34.5V50.5L36.5 50.5V48.5H34.5V46.5H36.5V48.5L38.5 48.499L38.5 46.5L40.5 46.5V44.5H34.5L34.5 46.5L32.5 46.5V50.5L30.5 50.5V52.5H24.5V50.5L28.5 50.5L28.5 48.5H26.5V44.5H28.5V42.5H22.5V38.5H24.5ZM64.5 72.5H62.5V74.5H64.5V72.5ZM50.5 72.5V74.5H48.5L48.5 72.5L50.5 72.5ZM88.5 70.5V74.5H86.5V70.5H88.5ZM60.5 70.5H58.5L58.5 72.5L60.5 72.5V70.5ZM28.5 54.5V58.5H26.5V60.5L24.5 60.5V62.5H28.5V60.5H30.5L30.5 62.5H32.5V64.5H30.5L30.5 66.5H32.5V68.5H34.5V70.5H36.5V72.5H26.5V70.5H24.5V72.5H22.5V70.5H24.5L24.5 68.5H22.5V66.4999L26.5 66.5V64.5H22.5V58.5H24.5V54.5H28.5ZM38.5 60.5L38.5 66.5H40.5V70.5H38.5V68.5H34.5L34.5 66.5H36.5V64.5H34.5L34.5 66.5H32.5V64.5H34.5L34.5 62.5H36.5V60.5H38.5ZM30.5 68.5H26.5L26.5 70.5H30.5L30.5 68.5ZM82.5 68.5V70.5H80.5L80.5 68.5H82.5ZM58.5 66.5H54.5L54.5 68.5H56.5V70.5H58.5L58.5 66.5ZM80.5 66.5L80.5 68.5H78.5V66.5H80.5ZM86.5 60.5V64.5H88.5V68.5H86.5V66.4999L84.5 66.5V68.5H82.5V66.5H84.5V60.5H86.5ZM50.5 62.5V64.5H48.5V62.5H50.5ZM34.5 60.5L34.5 62.5H32.5V60.5H34.5ZM78.5 60.5V62.5H76.5V60.5H78.5ZM68.5 60.5H66.5V62.5H68.5V60.5ZM84.5 58.5V60.5L82.5 60.5V58.5H84.5ZM70.5 58.5H68.5V60.5L70.5 60.5V58.5ZM88.5 58.5V60.5L86.5 60.5V58.5H88.5ZM36.5 58.5V60.5H34.5L34.5 58.5H36.5ZM32.5 56.5V60.5H30.5L30.5 56.5H32.5ZM52.5 58.5V60.5H50.5V58.5H52.5ZM86.5 46.5L86.499 48.499L88.5 48.5V50.5L86.5 50.5V58.5H84.5V46.5H86.5ZM82.5 54.5V58.5H80.5V56.5L78.5 56.5V58.5H76.5V56.5L78.5 56.5V54.5H82.5ZM60.5 52.5V54.5H58.5V56.5L56.5 56.5V58.5H54.5V56.5H56.5V52.5H60.5ZM72.5 34.5V38.5H74.5V40.5H76.5V38.5H78.5V42.5H80.5L80.5 44.5H82.5V50.5L80.5 50.5V52.5H76.5V56.5H74.5V52.5H72.5V50.5H74.5L74.499 48.5H72.5V46.5H76.5V48.5H80.5V46.5H78.5V44.5H76.5V42.5H72.5V40.5L68.5 40.5V42.5H66.5V40.5H68.5V36.5H70.5L70.5 34.5H72.5ZM32.5 52.5V54.5H30.5L30.5 52.5H32.5ZM64.5 50.5V52.5H62.5V50.5H64.5ZM50.5 48.5V52.5H48.5V48.5H50.5ZM56.5 48.5V50.5H52.5V48.5H56.5ZM70.5 44.5V46.5H68.5V48.5H66.499L66.5 50.5H64.5L64.499 48.5H62.5V44.5H70.5ZM24.5 46.5V48.5H22.5V46.5H24.5ZM56.5 40.5V42.5L58.5 42.5V46.5H56.5V44.5H54.5L54.5 46.5H50.5V44.5H54.5V40.5H56.5ZM88.5 40.5V46.5H86.5V40.5H88.5ZM32.5 44.5H30.5V46.5H32.5V44.5ZM46.5 42.5V44.5H44.5V42.5H46.5ZM84.5 42.5V44.5H82.5V42.5H84.5ZM62.5 42.5V44.5H60.5V42.5H62.5ZM54.5 22.5L54.5 24.5H58.5V32.5H54.5V30.5L52.5 30.5V28.5H50.5V32.5H52.5V36.5H50.5V34.5H48.5V38.5H54.5L54.5 40.5H48.5V42.5H46.5V34.5H48.5V30.5L42.5 30.5V34.5H40.5V36.5H38.5V32.5H40.5V30.5L42.5 30.5V28.5H50.5V26.5L52.5 26.5V22.5H54.5ZM64.5 40.5V42.5H62.5V40.5H64.5ZM60.5 32.5V36.5H62.5V32.5H66.5V34.5H64.5V36.5H66.5V40.5H64.5V38.5H62.5V40.5L58.5 40.5V38.5H56.5V36.5L54.5 36.5V34.5H56.5V36.5H58.5V32.5H60.5ZM40.5 38.5V40.5H38.5L38.5 38.5H40.5ZM68.5 34.5V36.5H66.5V34.5H68.5ZM44.5 34.5V36.5H42.5V34.5H44.5ZM36.5 22.5V36.5H22.5V22.5H36.5ZM88.5 22.5V36.5H74.5V22.5H88.5ZM46.5 32.5V34.5H44.5L44.5 32.5H46.5ZM34.4 24.6H24.6V34.4H34.4V24.6ZM86.3999 24.6H76.5999V34.4H86.3999V24.6ZM32.5 26.5V32.5H26.5V26.5H32.5ZM72.5 28.5V32.5H66.5V30.5L70.5 30.5V28.5H72.5ZM84.5 26.5V32.5H78.5V26.5H84.5ZM62.5 30.5V32.5H60.5V30.5H62.5ZM56.5 28.5H54.5L54.5 30.5L56.5 30.5V28.5ZM54.5 26.5L52.5 26.5V28.5H54.5L54.5 26.5ZM70.5 22.5V26.5L68.5 26.5V28.5H66.5V26.5H64.5V28.5H60.5V26.5L62.5 26.5V24.5L64.5 24.5V22.5H70.5ZM42.5 24.5V28.5H40.5V24.5H42.5ZM44.5001 22.5V24.5L42.5 24.5V22.5H44.5001ZM62.5 22.5V24.5H58.5L58.5 22.5H62.5Z" fill="black" style="fill:black;fill-opacity:1;"/>
</svg>
